<svg width="16" height="16" viewBox="0 0 16 16" fill="none" xmlns="http://www.w3.org/2000/svg">
<path opacity="0.6" fill-rule="evenodd" clip-rule="evenodd" d="M15.6567 1.46681V14.8465C15.6567 15.0882 15.2745 15.4492 15.0128 15.4546H11.1491V9.98114H13.0809V7.54847H11.1491V6.33214C10.868 5.5508 11.0533 5.11877 11.7931 5.11581H13.0809V3.29131C13.0452 3.12269 12.3156 3.06253 11.1491 3.29131C9.67521 3.06253 8.45923 4.09065 8.57335 5.72397V7.54847H6.64153V9.98114H8.57335V15.4546H0.846059C0.584284 15.4546 0.202118 15.0937 0.202118 14.8465V1.46681C0.202118 1.21958 0.584284 0.858643 0.846059 0.858643H15.0128C15.2745 0.858643 15.6567 1.21411 15.6567 1.46681Z" fill="white"/>
</svg>
