<svg width="19" height="15" viewBox="0 0 19 15" fill="none" xmlns="http://www.w3.org/2000/svg">
<path opacity="0.6" fill-rule="evenodd" clip-rule="evenodd" d="M18.0303 2.49569C17.3676 2.77182 16.6523 2.95919 15.9054 3.03809C16.6733 2.60417 17.2519 1.93357 17.5359 1.11505C16.8206 1.50952 16.0316 1.80537 15.1901 1.9533C14.5168 1.2827 13.5491 0.858643 12.4866 0.858643C10.4458 0.858643 8.78374 2.4168 8.78374 4.32998C8.78374 4.6061 8.8153 4.86251 8.87842 5.11892C5.80674 4.97099 3.07168 3.59035 1.25182 1.48979C0.936231 2.0026 0.746881 2.59431 0.746881 3.23532C0.746881 4.43845 1.39909 5.50352 2.39844 6.12481C1.78831 6.10509 1.22026 5.9473 0.725842 5.6909C0.725842 5.70076 0.725842 5.72048 0.725842 5.73034C0.725842 7.40684 1.9987 8.81707 3.69233 9.13264C3.37674 9.21154 3.05064 9.25099 2.71402 9.25099C2.47207 9.25099 2.24064 9.23126 2.01974 9.19181C2.49311 10.5725 3.86064 11.5784 5.48064 11.5981C4.2183 12.5251 2.61934 13.0872 0.883634 13.0872C0.589089 13.0872 0.294545 13.0675 0 13.0379C1.64103 14.0241 3.58713 14.596 5.66999 14.596C12.4761 14.596 16.2 9.31015 16.2 4.72445C16.2 4.57652 16.2 4.42859 16.1894 4.27081C16.9048 3.8073 17.5359 3.19588 18.0303 2.49569Z" fill="white"/>
</svg>
