<?xml version="1.0" standalone="yes"?>
<svg xmlns="http://www.w3.org/2000/svg" width="635" height="540">
<path style="fill:#ffffff; stroke:none;" d="M0 0L0 35L1 35C1.73454 18.9641 16.1936 3.36926 32 1L0 0z"/>
<path style="fill:#2967b3; stroke:none;" d="M32 0.464539C17.7789 3.02875 5.77566 14.1628 1.78164 28C-1.16515 38.209 0 49.5013 0 60L0 113L0 407L0 480C0 493.817 -1.05355 508.221 7.61265 520C19.478 536.127 35.9519 536 54 536L130 536L385 536L465 536C478.086 536 493.181 538.066 506 535.331C519.797 532.387 531.308 521.548 535.218 508C538.165 497.791 537 486.499 537 476L537 423L537 127L537 55C537 41.0323 537.901 26.5862 528.621 15C516.202 -0.506348 500.04 0 482 0L405 0L154 0L73 0C59.809 0 44.9912 -1.87787 32 0.464539z"/>
<path style="fill:#ffffff; stroke:none;" d="M505 0L505 1C531.337 4.94775 537 30.9543 537 53L537 222L537 450C537 477.673 544.327 515.937 515 531.676C502.97 538.132 488.178 536 475 536L398 536L112 536L58 536C48.5694 536 38.1291 537.281 29 534.56C14.6056 530.27 1.70311 516.35 1 501L0 501L0 540L591 540L591 539C583.771 537.932 577.466 534.667 572.09 529.7C567.822 525.756 564.487 520.473 562.548 515C560.594 509.486 559.802 503.763 560.755 498C567.778 455.53 633.079 456.616 634 501L635 501L635 0L505 0M111 75.4645C63.684 83.9955 63.8555 152.618 109 164.241C115.717 165.97 122.233 165.84 129 164.539C186.764 153.438 168.375 65.1199 111 75.4645M285 236L285 202L210 202L210 456L288 456L288 357C288 336.19 286.297 314.096 292.746 294C301.254 267.489 337.724 253.059 360.999 271.39C377.473 284.365 378 307.875 378 327L378 456L456 456C456 427.422 454.789 398.548 456.039 370C457.696 332.179 460.077 290.811 449.573 254C435.957 206.285 385.329 185.95 339 197.475C324.474 201.089 310.782 208.639 300.039 219.09C294.817 224.17 291.365 232.518 285 236M81 202L81 456L159 456L159 202L81 202z"/>
<path style="fill:#2967b3; stroke:none;" d="M590 466.465C542.993 474.94 557.217 547.97 604 539.536C651.92 530.896 637.977 457.814 590 466.465z"/>
<path style="fill:#ffffff; stroke:none;" d="M592 471.465C552.065 478.665 562.287 541.481 602 534.384C643.051 527.049 632.956 464.08 592 471.465z"/>
<path style="fill:#2967b3; stroke:none;" d="M584 483L584 523L590 523L590 506C602.297 506.402 601.177 522.848 614 523L603 505C612.052 504.318 617.481 492.124 609.772 485.653C603.767 480.612 591.335 483 584 483z"/>
<path style="fill:#ffffff; stroke:none;" d="M590 488L590 500C594.106 500 600.126 501.064 603.771 498.821C615.598 491.543 594.109 488 590 488M634 505C633.649 521.487 620.357 536.548 604 539L604 540L635 540L634 505z"/>
</svg>
