<svg width="75" height="54" viewBox="0 0 75 54" fill="none" xmlns="http://www.w3.org/2000/svg">
<path d="M46.6848 17.0874V22.8707H51.1186V26.0272H46.6848V40.8384C46.6848 41.7949 46.8823 42.516 47.2774 43.0016C47.6725 43.4725 48.3456 43.7079 49.2968 43.7079C49.765 43.7079 50.4089 43.6196 51.2284 43.4431V46.7541C50.1601 47.0484 49.1212 47.1955 48.1115 47.1955C46.297 47.1955 44.9288 46.6437 44.0069 45.54C43.085 44.4364 42.624 42.8692 42.624 40.8384V26.0272H38.2999V22.8707H42.624V17.0874H46.6848Z" fill="#027BFE"/>
<path d="M65.7372 47.1955C62.5179 47.1955 59.8985 46.136 57.8792 44.017C55.8598 41.8832 54.8501 39.0357 54.8501 35.4746V34.7241C54.8501 32.3549 55.2964 30.2432 56.189 28.389C57.0963 26.5201 58.3547 25.0633 59.9644 24.0185C61.5887 22.959 63.3447 22.4292 65.2323 22.4292C68.3199 22.4292 70.7198 23.4519 72.4319 25.4974C74.144 27.5429 75 30.4713 75 34.2826V35.9823H58.9108C58.9693 38.3367 59.6498 40.2424 60.9521 41.6993C62.2691 43.1414 63.9373 43.8625 65.9567 43.8625C67.3907 43.8625 68.6053 43.5681 69.6003 42.9795C70.5954 42.3909 71.4661 41.611 72.2124 40.6397L74.6927 42.5822C72.7026 45.6578 69.7174 47.1955 65.7372 47.1955ZM65.2323 25.7843C63.5934 25.7843 62.2179 26.3877 61.1058 27.5944C59.9937 28.7863 59.3059 30.4639 59.0425 32.6271H70.9393V32.3181C70.8222 30.2432 70.2662 28.6392 69.2711 27.5061C68.276 26.3583 66.9298 25.7843 65.2323 25.7843Z" fill="#027BFE"/>
<path d="M20.0443 41.875C18.9664 42.5003 17.8263 42.813 16.6241 42.813C15.3666 42.813 14.3371 42.4725 13.5356 41.7916C12.7341 41.1107 12.3333 40.1657 12.3333 38.9567C12.3333 36.1912 14.6825 34.8085 19.381 34.8085H22.3866V39.4361C21.9029 40.4367 21.1222 41.2496 20.0443 41.875Z" fill="#027BFE"/>
<path fill-rule="evenodd" clip-rule="evenodd" d="M36.9114 34.862C36.9114 45.4316 28.6485 54 18.4557 54C8.26291 54 0 45.4316 0 34.862C0 24.2924 8.26291 15.724 18.4557 15.724C28.6485 15.724 36.9114 24.2924 36.9114 34.862ZM22.4488 43.3758C22.587 44.5154 22.7666 45.3075 22.9877 45.7522H27.009V45.4187C26.4839 44.1957 26.2214 42.549 26.2214 40.4784V30.0975C26.1661 27.8184 25.406 26.0327 23.9412 24.7403C22.4764 23.434 20.4519 22.7809 17.8678 22.7809C16.2372 22.7809 14.7378 23.0866 13.3697 23.698C12.0155 24.3095 10.9376 25.1433 10.1361 26.1995C9.34842 27.2417 8.95458 28.3257 8.95458 29.4513H12.8101C12.8101 28.4646 13.273 27.6239 14.1989 26.929C15.1247 26.2342 16.2717 25.8868 17.6398 25.8868C19.2013 25.8868 20.3829 26.2898 21.1844 27.0958C21.9859 27.8879 22.3866 28.958 22.3866 30.3059V32.0778H18.6555C15.4357 32.0778 12.9344 32.7309 11.1518 34.0372C9.38297 35.3296 8.49856 37.1501 8.49856 39.4986C8.49856 41.4303 9.20333 43.0284 10.6129 44.293C12.0362 45.5437 13.8534 46.1691 16.0644 46.1691C18.538 46.1691 20.6661 45.238 22.4488 43.3758Z" fill="#027BFE"/>
<path fill-rule="evenodd" clip-rule="evenodd" d="M14.4126 0.340191C15.0084 0.0665932 16.7751 -0.62606 17.3055 1.37917L21.0903 12.0807C21.2453 12.6625 21.352 13.1958 21.3417 13.6495C20.3981 13.511 19.4338 13.4383 18.4557 13.4383C17.8393 13.4383 17.2331 13.4694 16.6305 13.5248L10.4625 5.0156C9.11594 3.44328 10.6795 2.3662 11.2408 2.0268L14.4126 0.340191Z" fill="#027BFE"/>
</svg>
