<svg width="17" height="16" viewBox="0 0 17 16" fill="none" xmlns="http://www.w3.org/2000/svg">
<path d="M12.2587 0.858643H4.95397C2.70709 0.858643 0.879028 2.58515 0.879028 4.7072V11.6061C0.879028 13.7281 2.70709 15.4546 4.95397 15.4546H12.2587C14.5055 15.4546 16.3336 13.7281 16.3336 11.6061V4.7072C16.3336 2.58515 14.5055 0.858643 12.2587 0.858643ZM13.617 10.3232C13.617 11.7379 12.3983 12.8889 10.9004 12.8889H6.31228C4.81436 12.8889 3.59565 11.7379 3.59565 10.3232V5.99005C3.59565 4.57535 4.81436 3.42434 6.31228 3.42434H10.9004C12.3983 3.42434 13.617 4.57535 13.617 5.99005V10.3232Z" fill="white"/>
</svg>
